<svg xmlns="http://www.w3.org/2000/svg" width="184.469" height="21" viewBox="0 0 184.469 21">
  <defs>
    <style>
      .cls-1 {
        fill: #212121;
        fill-rule: evenodd;
      }
    </style>
  </defs>
  <path id="logo" class="cls-1" d="M135.5,782.7V765.874h-5.569V782.7H135.5Zm23.544,0V765.874H154v8.64l-6.649-8.64H142.7V782.7h5.064v-8.592l6.625,8.592h4.656Zm21.264-12.433v-4.392H165.16v4.392h4.777V782.7h5.568V770.266h4.8Zm20.351-.168v-4.224H186.424V782.7h14.45v-4.224h-8.881v-2.088h7.872v-4.225h-7.872V770.1h8.664Zm16.8,12.6h6.288l-3.312-5.472A5.845,5.845,0,0,0,223.1,771.9c0-3.841-2.616-6.025-7.176-6.025h-8.137V782.7h5.568v-4.368h2.089Zm-4.1-8.592V770.1h2.569a1.763,1.763,0,0,1,1.9,1.968,1.8,1.8,0,0,1-1.9,2.041h-2.569Zm22.2,8.592V765.874h-5.568V782.7h5.568Zm15.6-16.993c-5.352,0-9.241,3.576-9.241,8.568,0,5.017,3.889,8.665,9.241,8.665s9.241-3.672,9.241-8.665C260.393,769.306,256.505,765.706,251.152,765.706Zm0.072,4.632c1.92,0,3.456,1.656,3.456,3.961s-1.536,4.008-3.456,4.008a3.808,3.808,0,0,1-3.6-4.008A3.749,3.749,0,0,1,251.224,770.338Zm25.2,12.361h6.288l-3.312-5.472a5.845,5.845,0,0,0,2.664-5.328c0-3.841-2.616-6.025-7.176-6.025h-8.137V782.7h5.569v-4.368h2.088Zm-4.1-8.592V770.1h2.568a1.763,1.763,0,0,1,1.9,1.968,1.8,1.8,0,0,1-1.9,2.041H272.32ZM98.25,773.031v-9.187h9.187v9.187H98.25Zm11.813-9.187h9.187v9.187h-9.187v-9.187h0Zm0,21v-9.188h9.187v9.188h-9.187Zm-11.813,0v-9.188h9.187v9.188H98.25Z" transform="translate(-98.25 -763.844)"/>
</svg>
