<?xml version="1.0" encoding="iso-8859-1"?>
<!-- Generator: Adobe Illustrator 18.0.0, SVG Export Plug-In . SVG Version: 6.00 Build 0)  -->
<!DOCTYPE svg PUBLIC "-//W3C//DTD SVG 1.1//EN" "http://www.w3.org/Graphics/SVG/1.1/DTD/svg11.dtd">
<svg version="1.1" id="Capa_1" xmlns="http://www.w3.org/2000/svg" xmlns:xlink="http://www.w3.org/1999/xlink" x="0px" y="0px"
	 viewBox="0 0 252.646 252.646" style="enable-background:new 0 0 252.646 252.646;" xml:space="preserve">
<path style="fill:#020202;" d="M225.765,103.53h26.882l-43.5,52l-43.5-52h24.446c-7.301-30.339-34.649-52.957-67.196-52.957
	c-27.476,0-52.348,16.268-63.364,41.444L27.468,77.986c16.591-37.914,54.049-62.413,95.429-62.413
	C174.813,15.573,217.974,53.767,225.765,103.53z M129.75,237.073c41.38,0,78.838-24.499,95.429-62.413l-32.064-14.031
	c-11.017,25.177-35.889,41.444-63.364,41.444c-32.547,0-59.896-22.618-67.196-52.957H87l-43.5-52l-43.5,52h26.882
	C34.673,198.88,77.833,237.073,129.75,237.073z"/>
<g>
</g>
<g>
</g>
<g>
</g>
<g>
</g>
<g>
</g>
<g>
</g>
<g>
</g>
<g>
</g>
<g>
</g>
<g>
</g>
<g>
</g>
<g>
</g>
<g>
</g>
<g>
</g>
<g>
</g>
</svg>
